<svg width="654" height="683" viewBox="0 0 654 683" fill="none" xmlns="http://www.w3.org/2000/svg">
<path d="M359.662 471.968H349.191V482.433H359.662V471.968Z" fill="#64FFDA"/>
<path d="M374.599 431.161H364.128V441.626H374.599V431.161Z" fill="#64FFDA"/>
<path d="M359.758 458.525H349.287V468.991H359.758V458.525Z" fill="#64FFDA"/>
<path d="M359.517 485.458H349.047V495.924H359.517V485.458Z" fill="#64FFDA"/>
<path d="M359.758 445.083H349.287V455.549H359.758V445.083Z" fill="#64FFDA"/>
<path d="M332.235 550.605H338.72L342.706 543.836V540.139H332.235V550.605Z" fill="#64FFDA"/>
<path d="M359.565 404.9H349.094V415.366H359.565V404.9Z" fill="#64FFDA"/>
<path d="M348.422 340.233V348.251H358.893V337.785H349.863L348.422 340.233Z" fill="#64FFDA"/>
<path d="M359.758 431.689H349.287V442.155H359.758V431.689Z" fill="#64FFDA"/>
<path d="M373.783 364.477H363.312V374.943H373.783V364.477Z" fill="#64FFDA"/>
<path d="M374.119 391.122H363.648V401.588H374.119V391.122Z" fill="#64FFDA"/>
<path d="M374.263 404.468H363.792V414.934H374.263V404.468Z" fill="#64FFDA"/>
<path d="M351.4 334.712H358.653V324.199H357.596L351.4 334.712Z" fill="#64FFDA"/>
<path d="M373.927 377.824H363.456V388.29H373.927V377.824Z" fill="#64FFDA"/>
<path d="M374.455 417.815H363.984V428.28H374.455V417.815Z" fill="#64FFDA"/>
<path d="M373.159 324.199H362.688V334.664H373.159V324.199Z" fill="#64FFDA"/>
<path d="M359.469 391.506H348.999V401.972H359.469V391.506Z" fill="#64FFDA"/>
<path d="M373.399 337.689H362.928V348.155H373.399V337.689Z" fill="#64FFDA"/>
<path d="M373.591 351.083H363.12V361.549H373.591V351.083Z" fill="#64FFDA"/>
<path d="M359.325 498.996H348.854V509.462H359.325V498.996Z" fill="#64FFDA"/>
<path d="M345.012 405.188H334.541V415.654H345.012V405.188Z" fill="#64FFDA"/>
<path d="M344.868 458.958H334.397V469.423H344.868V458.958Z" fill="#64FFDA"/>
<path d="M345.012 432.025H334.541V442.491H345.012V432.025Z" fill="#64FFDA"/>
<path d="M344.916 391.746H334.445V402.212H344.916V391.746Z" fill="#64FFDA"/>
<path d="M344.964 445.467H334.493V455.933H344.964V445.467Z" fill="#64FFDA"/>
<path d="M345.012 418.583H334.541V429.048H345.012V418.583Z" fill="#64FFDA"/>
<path d="M359.373 378.112H348.902V388.578H359.373V378.112Z" fill="#64FFDA"/>
<path d="M344.868 378.304H334.397V388.77H344.868V378.304Z" fill="#64FFDA"/>
<path d="M331.419 553.773V561.743L336.126 553.773H331.419Z" fill="#64FFDA"/>
<path d="M344.772 364.862H334.301V375.327H344.772V364.862Z" fill="#64FFDA"/>
<path d="M330.41 375.375V370.863L327.72 375.375H330.41Z" fill="#64FFDA"/>
<path d="M359.085 351.275H348.614V361.741H359.085V351.275Z" fill="#64FFDA"/>
<path d="M344.676 472.448H334.205V482.913H344.676V472.448Z" fill="#64FFDA"/>
<path d="M344.532 348.299V346.666L343.571 348.299H344.532Z" fill="#64FFDA"/>
<path d="M359.229 364.718H348.758V375.183H359.229V364.718Z" fill="#64FFDA"/>
<path d="M335.694 361.837H344.628V351.371H341.89L335.694 361.837Z" fill="#64FFDA"/>
<path d="M344.099 499.428H333.628V509.894H344.099V499.428Z" fill="#64FFDA"/>
<path d="M343.715 512.967H333.244V523.432H343.715V512.967Z" fill="#64FFDA"/>
<path d="M344.435 485.938H333.965V496.404H344.435V485.938Z" fill="#64FFDA"/>
<path d="M343.235 526.553H332.764V537.019H343.235V526.553Z" fill="#64FFDA"/>
<path d="M359.662 418.295H349.191V428.76H359.662V418.295Z" fill="#64FFDA"/>
<path d="M403.562 376.768H393.092V387.233H403.562V376.768Z" fill="#64FFDA"/>
<path d="M403.226 363.565H392.755V374.031H403.226V363.565Z" fill="#64FFDA"/>
<path d="M403.899 389.922H393.428V400.388H403.899V389.922Z" fill="#64FFDA"/>
<path d="M402.938 350.363H392.467V360.829H402.938V350.363Z" fill="#64FFDA"/>
<path d="M404.283 403.076H393.812V413.542H404.283V403.076Z" fill="#64FFDA"/>
<path d="M402.65 337.065H392.179V347.531H402.65V337.065Z" fill="#64FFDA"/>
<path d="M178.294 93.5677H167.823V104.034H178.294V93.5677Z" fill="#64FFDA"/>
<path d="M402.074 296.546H391.603V307.012H402.074V296.546Z" fill="#64FFDA"/>
<path d="M402.266 310.18H391.795V320.646H402.266V310.18Z" fill="#64FFDA"/>
<path d="M402.458 323.671H391.987V334.136H402.458V323.671Z" fill="#64FFDA"/>
<path d="M416.771 253.915H406.3V264.381H416.771V253.915Z" fill="#64FFDA"/>
<path d="M416.771 282.288H406.3V292.753H416.771V282.288Z" fill="#64FFDA"/>
<path d="M416.963 309.748H406.492V320.214H416.963V309.748Z" fill="#64FFDA"/>
<path d="M416.819 296.114H406.348V306.58H416.819V296.114Z" fill="#64FFDA"/>
<path d="M417.155 323.239H406.684V333.704H417.155V323.239Z" fill="#64FFDA"/>
<path d="M401.737 250.698V247.05L399.624 250.698H401.737Z" fill="#64FFDA"/>
<path d="M404.619 416.278H394.148V426.744H404.619V416.278Z" fill="#64FFDA"/>
<path d="M391.458 265.005H401.593V254.539H397.655L391.458 265.005Z" fill="#64FFDA"/>
<path d="M416.771 268.221H406.3V278.687H416.771V268.221Z" fill="#64FFDA"/>
<path d="M401.929 282.72H391.458V293.186H401.929V282.72Z" fill="#64FFDA"/>
<path d="M388.673 377.344H378.202V387.809H388.673V377.344Z" fill="#64FFDA"/>
<path d="M387.808 324.007H377.337V334.472H387.808V324.007Z" fill="#64FFDA"/>
<path d="M388 337.449H377.529V347.915H388V337.449Z" fill="#64FFDA"/>
<path d="M388.192 350.795H377.721V361.261H388.192V350.795Z" fill="#64FFDA"/>
<path d="M387.568 310.468H377.097V320.934H387.568V310.468Z" fill="#64FFDA"/>
<path d="M372.63 307.348V297.986L367.106 307.348H372.63Z" fill="#64FFDA"/>
<path d="M374.744 471.344H364.273V481.809H374.744V471.344Z" fill="#64FFDA"/>
<path d="M374.744 457.949H364.273V468.415H374.744V457.949Z" fill="#64FFDA"/>
<path d="M387.328 296.786H376.857V307.252H387.328V296.786Z" fill="#64FFDA"/>
<path d="M388.433 364.093H377.962V374.559H388.433V364.093Z" fill="#64FFDA"/>
<path d="M374.696 444.555H364.225V455.021H374.696V444.555Z" fill="#64FFDA"/>
<path d="M389.777 443.739H379.307V454.205H389.777V443.739Z" fill="#64FFDA"/>
<path d="M389.922 457.133H379.451V467.599H389.922V457.133Z" fill="#64FFDA"/>
<path d="M376.521 291.217V293.474H387.04V283.008H381.42L376.521 291.217Z" fill="#64FFDA"/>
<path d="M386.896 279.503V273.022L383.053 279.503H386.896Z" fill="#64FFDA"/>
<path d="M401.737 268.749H391.266V279.215H401.737V268.749Z" fill="#64FFDA"/>
<path d="M389.153 403.892H378.682V414.358H389.153V403.892Z" fill="#64FFDA"/>
<path d="M388.913 390.642H378.442V401.108H388.913V390.642Z" fill="#64FFDA"/>
<path d="M389.633 430.441H379.162V440.906H389.633V430.441Z" fill="#64FFDA"/>
<path d="M389.393 417.142H378.922V427.608H389.393V417.142Z" fill="#64FFDA"/>
<path d="M297.124 219.013H286.653V221.317H297.124V219.013Z" fill="#64FFDA"/>
<path d="M295.972 142.248H285.501V152.714H295.972V142.248Z" fill="#64FFDA"/>
<path d="M300.583 158.427H290.112V168.892H300.583V158.427Z" fill="#64FFDA"/>
<path d="M305.05 174.557H294.579V185.023H305.05V174.557Z" fill="#64FFDA"/>
<path d="M333.724 223.238H323.253V225.542H333.724V223.238Z" fill="#64FFDA"/>
<path d="M291.408 126.117H280.938V136.583H291.408V126.117Z" fill="#64FFDA"/>
<path d="M313.215 206.387H302.744V216.853H313.215V206.387Z" fill="#64FFDA"/>
<path d="M271.859 136.727H261.389V147.193H271.859V136.727Z" fill="#64FFDA"/>
<path d="M315.713 221.365H305.242V223.67H315.713V221.365Z" fill="#64FFDA"/>
<path d="M266 119.828H255.529V130.294H266V119.828Z" fill="#64FFDA"/>
<path d="M331.851 208.547H321.38V219.013H331.851V208.547Z" fill="#64FFDA"/>
<path d="M309.324 190.544H298.853V201.01H309.324V190.544Z" fill="#64FFDA"/>
<path d="M349.815 210.083H339.344V220.549H349.815V210.083Z" fill="#64FFDA"/>
<path d="M347.654 195.057H337.183V205.523H347.654V195.057Z" fill="#64FFDA"/>
<path d="M351.208 224.582H340.737V226.886H351.208V224.582Z" fill="#64FFDA"/>
<path d="M345.252 179.934H334.781V190.4H345.252V179.934Z" fill="#64FFDA"/>
<path d="M325.607 177.678H315.136V188.144H325.607V177.678Z" fill="#64FFDA"/>
<path d="M322.149 162.123H311.678V172.589H322.149V162.123Z" fill="#64FFDA"/>
<path d="M328.825 193.185H318.354V203.65H328.825V193.185Z" fill="#64FFDA"/>
<path d="M354.474 526.169H348.086V536.635H348.278L354.474 526.169Z" fill="#64FFDA"/>
<path d="M315.184 131.014H304.713V141.48H315.184V131.014Z" fill="#64FFDA"/>
<path d="M238.718 112.243H228.247V122.709H238.718V112.243Z" fill="#64FFDA"/>
<path d="M277.767 153.674H267.297V164.14H277.767V153.674Z" fill="#64FFDA"/>
<path d="M273.973 200.386H263.502V210.852H273.973V200.386Z" fill="#64FFDA"/>
<path d="M218.929 122.517H208.458V132.982H218.929V122.517Z" fill="#64FFDA"/>
<path d="M277.96 216.181H267.489V218.485H277.96V216.181Z" fill="#64FFDA"/>
<path d="M228.343 141.528H217.872V151.994H228.343V141.528Z" fill="#64FFDA"/>
<path d="M253.463 196.689H242.945V207.155H253.463V196.689Z" fill="#64FFDA"/>
<path d="M258.219 213.012H247.748V215.316H258.219V213.012Z" fill="#64FFDA"/>
<path d="M237.373 160.299H226.854V170.765H237.373V160.299Z" fill="#64FFDA"/>
<path d="M245.778 178.686H235.307V189.152H245.778V178.686Z" fill="#64FFDA"/>
<path d="M209.466 103.505H198.995V113.971H209.466V103.505Z" fill="#64FFDA"/>
<path d="M288.959 187.232H278.488V197.697H288.959V187.232Z" fill="#64FFDA"/>
<path d="M417.444 336.537H406.973V347.003H417.444V336.537Z" fill="#64FFDA"/>
<path d="M293.954 203.65H283.483V214.116H293.954V203.65Z" fill="#64FFDA"/>
<path d="M283.531 170.525H273.06V180.991H283.531V170.525Z" fill="#64FFDA"/>
<path d="M267.777 183.247H257.306V193.713H267.777V183.247Z" fill="#64FFDA"/>
<path d="M260.956 165.724H250.485V176.19H260.956V165.724Z" fill="#64FFDA"/>
<path d="M253.704 148.009H243.233V158.475H253.704V148.009Z" fill="#64FFDA"/>
<path d="M246.211 130.102H235.74V140.568H246.211V130.102Z" fill="#64FFDA"/>
<path d="M342.706 164.716H332.235V175.182H342.706V164.716Z" fill="#64FFDA"/>
<path d="M318.642 146.521H308.172V156.986H318.642V146.521Z" fill="#64FFDA"/>
<path d="M417.155 164.14H406.684V174.605H417.155V164.14Z" fill="#64FFDA"/>
<path d="M417.155 179.406H406.684V189.872H417.155V179.406Z" fill="#64FFDA"/>
<path d="M417.107 194.625H406.637V205.091H417.107V194.625Z" fill="#64FFDA"/>
<path d="M417.107 148.921H406.637V159.387H417.107V148.921Z" fill="#64FFDA"/>
<path d="M417.059 133.847H406.589V144.312H417.059V133.847Z" fill="#64FFDA"/>
<path d="M398.807 150.938H388.337V161.403H398.807V150.938Z" fill="#64FFDA"/>
<path d="M398.183 136.103H387.712V146.569H398.183V136.103Z" fill="#64FFDA"/>
<path d="M399.384 165.916H388.913V176.382H399.384V165.916Z" fill="#64FFDA"/>
<path d="M409.615 425.592H416.579L420.085 419.639V415.126H409.615V425.592Z" fill="#64FFDA"/>
<path d="M406.492 226.982H413.361L408.51 235.144H416.963V224.678H406.492V226.982Z" fill="#64FFDA"/>
<path d="M417.011 209.699H406.541V220.165H417.011V209.699Z" fill="#64FFDA"/>
<path d="M372.102 498.42H363.984V508.886H365.906L372.102 498.42Z" fill="#64FFDA"/>
<path d="M363.6 512.102V512.342L363.696 512.102H363.6Z" fill="#64FFDA"/>
<path d="M348.566 523H356.732L359.037 519.112V512.534H348.566V523Z" fill="#64FFDA"/>
<path d="M364.225 495.299H374.071L374.696 494.291V484.834H364.225V495.299Z" fill="#64FFDA"/>
<path d="M394.677 453.196H399.96L405.195 444.363V442.731H394.677V453.196Z" fill="#64FFDA"/>
<path d="M394.533 456.365V462.27L398.039 456.365H394.533Z" fill="#64FFDA"/>
<path d="M409.759 428.472V437.258L414.898 428.472H409.759Z" fill="#64FFDA"/>
<path d="M389.297 470.527H379.499V481.041H383.101L389.297 470.527Z" fill="#64FFDA"/>
<path d="M379.162 484.258V487.33L380.988 484.258H379.162Z" fill="#64FFDA"/>
<path d="M400.729 210.756H390.258V221.221H400.729V210.756Z" fill="#64FFDA"/>
<path d="M364.08 181.183H353.609V191.648H364.08V181.183Z" fill="#64FFDA"/>
<path d="M360.478 151.274H350.007V161.739H360.478V151.274Z" fill="#64FFDA"/>
<path d="M362.303 166.252H351.832V176.718H362.303V166.252Z" fill="#64FFDA"/>
<path d="M384.734 225.542H374.263V227.846H384.734V225.542Z" fill="#64FFDA"/>
<path d="M358.653 136.439H348.182V146.905H358.653V136.439Z" fill="#64FFDA"/>
<path d="M365.713 196.113H355.243V206.579H365.713V196.113Z" fill="#64FFDA"/>
<path d="M368.163 225.35H357.692V227.654H368.163V225.35Z" fill="#64FFDA"/>
<path d="M337.519 134.471H327.048V144.937H337.519V134.471Z" fill="#64FFDA"/>
<path d="M399.864 180.895H389.393V191.36H399.864V180.895Z" fill="#64FFDA"/>
<path d="M367.251 210.996H356.78V221.461H367.251V210.996Z" fill="#64FFDA"/>
<path d="M378.778 136.967H368.307V147.433H378.778V136.967Z" fill="#64FFDA"/>
<path d="M400.969 225.158H390.498V227.462H400.969V225.158Z" fill="#64FFDA"/>
<path d="M340.113 149.545H329.642V160.011H340.113V149.545Z" fill="#64FFDA"/>
<path d="M384.158 211.188H373.687V221.653H384.158V211.188Z" fill="#64FFDA"/>
<path d="M400.344 195.873H389.873V206.339H400.344V195.873Z" fill="#64FFDA"/>
<path d="M383.245 196.401H372.774V206.867H383.245V196.401Z" fill="#64FFDA"/>
<path d="M382.236 181.519H371.766V191.984H382.236V181.519Z" fill="#64FFDA"/>
<path d="M381.132 166.636H370.661V177.102H381.132V166.636Z" fill="#64FFDA"/>
<path d="M379.979 151.754H369.508V162.219H379.979V151.754Z" fill="#64FFDA"/>
<path d="M404.907 429.48H394.436V439.946H404.907V429.48Z" fill="#64FFDA"/>
<path d="M522.057 134.423H511.586V144.888H522.057V134.423Z" fill="#64FFDA"/>
<path d="M518.935 154.25H508.464V164.716H518.935V154.25Z" fill="#64FFDA"/>
<path d="M525.323 114.259H514.852V124.725H525.323V114.259Z" fill="#64FFDA"/>
<path d="M528.637 93.9999H518.166V104.466H528.637V93.9999Z" fill="#64FFDA"/>
<path d="M512.114 258.284V260.108L513.171 258.284H512.114Z" fill="#64FFDA"/>
<path d="M513.507 192.369H503.036V202.834H513.507V192.369Z" fill="#64FFDA"/>
<path d="M509.569 227.75H499.098V238.216H509.569V227.75Z" fill="#64FFDA"/>
<path d="M511.346 210.42H500.875V220.885H511.346V210.42Z" fill="#64FFDA"/>
<path d="M522.153 242.345H513.123V252.811H515.957L522.153 242.345Z" fill="#64FFDA"/>
<path d="M516.053 173.597H505.582V184.063H516.053V173.597Z" fill="#64FFDA"/>
<path d="M527.196 207.203H516.725V217.669H527.196V207.203Z" fill="#64FFDA"/>
<path d="M548.09 83.5821H537.619V94.0479H548.09V83.5821Z" fill="#64FFDA"/>
<path d="M543.959 105.426H533.488V115.892H543.959V105.426Z" fill="#64FFDA"/>
<path d="M530.318 222.326V226.982L533.104 222.326H530.318Z" fill="#64FFDA"/>
<path d="M525.179 225.158H514.708V235.624H525.179V225.158Z" fill="#64FFDA"/>
<path d="M539.973 127.029H529.502V137.495H539.973V127.029Z" fill="#64FFDA"/>
<path d="M529.742 188.336H519.271V198.802H529.742V188.336Z" fill="#64FFDA"/>
<path d="M508.272 244.361H497.801V254.827H508.272V244.361Z" fill="#64FFDA"/>
<path d="M532.768 168.652H522.297V179.118H532.768V168.652Z" fill="#64FFDA"/>
<path d="M536.178 148.201H525.707V158.667H536.178V148.201Z" fill="#64FFDA"/>
<path d="M495.495 213.54H485.024V224.006H495.495V213.54Z" fill="#64FFDA"/>
<path d="M496.936 270.67H506.062L507.407 268.413V260.204H496.936V270.67Z" fill="#64FFDA"/>
<path d="M490.74 112.003H480.269V122.469H490.74V112.003Z" fill="#64FFDA"/>
<path d="M488.771 129.766H478.3V140.232H488.771V129.766Z" fill="#64FFDA"/>
<path d="M492.133 261.932H481.662V272.398H492.133V261.932Z" fill="#64FFDA"/>
<path d="M481.278 301.683H488.723L491.797 296.546V291.217H481.278V301.683Z" fill="#64FFDA"/>
<path d="M491.797 276.863H481.278V287.328H491.797V276.863Z" fill="#64FFDA"/>
<path d="M482.863 182.719H472.392V193.185H482.863V182.719Z" fill="#64FFDA"/>
<path d="M481.182 199.81H470.711V210.275H481.182V199.81Z" fill="#64FFDA"/>
<path d="M484.736 165.244H474.265V175.71H484.736V165.244Z" fill="#64FFDA"/>
<path d="M486.753 147.577H476.283V158.043H486.753V147.577Z" fill="#64FFDA"/>
<path d="M481.422 305.284V314.837L487.09 305.284H481.422Z" fill="#64FFDA"/>
<path d="M504.285 141.288H493.814V151.754H504.285V141.288Z" fill="#64FFDA"/>
<path d="M506.975 122.421H496.456V132.886H506.975V122.421Z" fill="#64FFDA"/>
<path d="M509.568 103.554H499.05V114.019H509.568V103.554Z" fill="#64FFDA"/>
<path d="M492.902 246.426H482.431V256.891H492.902V246.426Z" fill="#64FFDA"/>
<path d="M501.787 160.011H491.268V170.477H501.787V160.011Z" fill="#64FFDA"/>
<path d="M532.576 214.5H537.091L543.047 204.467V204.034H532.576V214.5Z" fill="#64FFDA"/>
<path d="M499.386 178.35H488.915V188.816H499.386V178.35Z" fill="#64FFDA"/>
<path d="M494.054 230.295H483.535V240.761H494.054V230.295Z" fill="#64FFDA"/>
<path d="M497.32 196.209H486.849V206.675H497.32V196.209Z" fill="#64FFDA"/>
<path d="M173.923 624.969H163.452V635.435H173.923V624.969Z" fill="#64FFDA"/>
<path d="M479.741 216.469H469.27V226.934H479.741V216.469Z" fill="#64FFDA"/>
<path d="M184.586 559.678V566.592H195.105V556.126H186.699L184.586 559.678Z" fill="#64FFDA"/>
<path d="M190.013 569.904H179.543V580.37H190.013V569.904Z" fill="#64FFDA"/>
<path d="M180.599 597.509H170.128V607.975H180.599V597.509Z" fill="#64FFDA"/>
<path d="M176.805 611.239H166.334V621.705H176.805V611.239Z" fill="#64FFDA"/>
<path d="M185.114 583.73H174.643V594.196H185.114V583.73Z" fill="#64FFDA"/>
<path d="M112.25 128.758H101.779V139.224H112.25V128.758Z" fill="#64FFDA"/>
<path d="M67.2924 75.4207H56.8215V85.8864H67.2924V75.4207Z" fill="#64FFDA"/>
<path d="M90.9721 102.785H80.5012V113.251H90.9721V102.785Z" fill="#64FFDA"/>
<path d="M41.4994 46.8079H31.0284V57.2737H41.4994V46.8079Z" fill="#64FFDA"/>
<path d="M131.031 153.242H120.56V163.708H131.031V153.242Z" fill="#64FFDA"/>
<path d="M622.779 530.874H620.042V536.971H622.779V530.874Z" fill="#64FFDA"/>
<path d="M0 682.339H7.10869V671.921H6.19609L0 682.339Z" fill="#64FFDA"/>
<path d="M278.104 456.605H285.885V446.091H284.3L278.104 456.605Z" fill="#64FFDA"/>
<path d="M643.529 0V10.3697H646.891L653.039 0H643.529Z" fill="#64FFDA"/>
<path d="M173.491 567.024V566.496L173.154 567.024H173.491Z" fill="#64FFDA"/>
<path d="M172.146 638.604H161.675V649.07H172.146V638.604Z" fill="#64FFDA"/>
<path d="M194.384 552.765H201.013V542.252H200.58L194.384 552.765Z" fill="#64FFDA"/>
<path d="M171.617 652.142H161.146V662.608H171.617V652.142Z" fill="#64FFDA"/>
<path d="M158.649 580.946H166.958V570.48H164.845L158.649 580.946Z" fill="#64FFDA"/>
<path d="M615.046 71.5801H607.217V82.0939H608.85L615.046 71.5801Z" fill="#64FFDA"/>
<path d="M555.583 169.421H561.827L566.054 162.219V158.955H555.583V169.421Z" fill="#64FFDA"/>
<path d="M551.596 180.606V188.144L556.063 180.606H551.596Z" fill="#64FFDA"/>
<path d="M147.361 176.334H136.89V186.8H147.361V176.334Z" fill="#64FFDA"/>
<path d="M570.665 136.055H560.194V146.521H570.665V136.055Z" fill="#64FFDA"/>
<path d="M553.469 142.008H542.999V152.474H553.469V142.008Z" fill="#64FFDA"/>
<path d="M562.788 96.1603H552.317V106.626H562.788V96.1603Z" fill="#64FFDA"/>
<path d="M549.483 163.708H539.012V174.173H549.483V163.708Z" fill="#64FFDA"/>
<path d="M575.9 112.051H565.429V122.517H575.9V112.051Z" fill="#64FFDA"/>
<path d="M557.937 119.444H547.466V129.91H557.937V119.444Z" fill="#64FFDA"/>
<path d="M567.831 72.4442H557.36V82.91H567.831V72.4442Z" fill="#64FFDA"/>
<path d="M545.977 184.399H535.506V194.865H545.977V184.399Z" fill="#64FFDA"/>
<path d="M607.313 50.2645H596.842V60.7303H607.313V50.2645Z" fill="#64FFDA"/>
<path d="M503.757 275.519H496.408V285.984H497.561L503.757 275.519Z" fill="#64FFDA"/>
<path d="M431.469 400.916H424.6V411.381H425.273L431.469 400.916Z" fill="#64FFDA"/>
<path d="M600.108 78.3493H589.637V88.8151H600.108V78.3493Z" fill="#64FFDA"/>
<path d="M581.568 86.9907H571.097V97.4564H581.568V86.9907Z" fill="#64FFDA"/>
<path d="M576.765 131.398V141.816L582.913 131.398H576.765Z" fill="#64FFDA"/>
<path d="M587.668 61.1143H577.197V71.5801H587.668V61.1143Z" fill="#64FFDA"/>
<path d="M583.057 115.652H590.934L593.528 111.331V105.186H583.057V115.652Z" fill="#64FFDA"/>
<path d="M447.56 373.791H439.01V384.257H441.363L447.56 373.791Z" fill="#64FFDA"/>
<path d="M431.613 295.49H421.142V305.956H431.613V295.49Z" fill="#64FFDA"/>
<path d="M431.757 309.124H421.286V319.59H431.757V309.124Z" fill="#64FFDA"/>
<path d="M431.613 281.568H421.142V292.033H431.613V281.568Z" fill="#64FFDA"/>
<path d="M431.949 252.955H421.478V263.42H431.949V252.955Z" fill="#64FFDA"/>
<path d="M431.757 267.405H421.286V277.871H431.757V267.405Z" fill="#64FFDA"/>
<path d="M432.814 349.019H422.343V359.485H432.814V349.019Z" fill="#64FFDA"/>
<path d="M432.286 238.264H421.815V248.73H432.286V238.264Z" fill="#64FFDA"/>
<path d="M433.39 362.029H422.919V372.495H433.39V362.029Z" fill="#64FFDA"/>
<path d="M432.382 335.865H421.911V346.33H432.382V335.865Z" fill="#64FFDA"/>
<path d="M433.966 374.943H423.496V385.409H433.966V374.943Z" fill="#64FFDA"/>
<path d="M438.289 371.391H448.664L448.76 371.199V360.925H438.289V371.391Z" fill="#64FFDA"/>
<path d="M439.106 387.185V388.193L439.682 387.185H439.106Z" fill="#64FFDA"/>
<path d="M435.552 130.246H425.081V140.712H435.552V130.246Z" fill="#64FFDA"/>
<path d="M417.78 349.739H407.309V360.205H417.78V349.739Z" fill="#64FFDA"/>
<path d="M435.119 145.753H424.648V156.218H435.119V145.753Z" fill="#64FFDA"/>
<path d="M433.15 208.019H422.679V218.485H433.15V208.019Z" fill="#64FFDA"/>
<path d="M433.63 192.608H423.159V203.074H433.63V192.608Z" fill="#64FFDA"/>
<path d="M432.67 223.286H422.199V233.751H432.67V223.286Z" fill="#64FFDA"/>
<path d="M434.639 161.403H424.168V171.869H434.639V161.403Z" fill="#64FFDA"/>
<path d="M434.111 177.054H423.64V187.52H434.111V177.054Z" fill="#64FFDA"/>
<path d="M431.997 322.615H421.526V333.08H431.997V322.615Z" fill="#64FFDA"/>
<path d="M326.135 554.013H315.664V564.479H326.135V554.013Z" fill="#64FFDA"/>
<path d="M424.168 398.323H432.814L434.639 395.251V387.857H424.168V398.323Z" fill="#64FFDA"/>
<path d="M328.201 513.351H317.73V523.816H328.201V513.351Z" fill="#64FFDA"/>
<path d="M327.576 526.889H317.105V537.355H327.576V526.889Z" fill="#64FFDA"/>
<path d="M326.856 540.427H316.385V550.893H326.856V540.427Z" fill="#64FFDA"/>
<path d="M418.212 362.893H407.741V373.359H418.212V362.893Z" fill="#64FFDA"/>
<path d="M418.645 375.951H408.174V386.417H418.645V375.951Z" fill="#64FFDA"/>
<path d="M419.605 402.068H409.134V412.534H419.605V402.068Z" fill="#64FFDA"/>
<path d="M419.125 389.01H408.654V399.475H419.125V389.01Z" fill="#64FFDA"/>
<path d="M406.396 239.848V249.882H416.867V239.416H406.637L406.396 239.848Z" fill="#64FFDA"/>
<path d="M330.506 391.89H320.035V402.356H330.506V391.89Z" fill="#64FFDA"/>
<path d="M330.458 418.823H319.987V429.288H330.458V418.823Z" fill="#64FFDA"/>
<path d="M330.362 432.265H319.891V442.731H330.362V432.265Z" fill="#64FFDA"/>
<path d="M330.506 405.38H320.035V415.846H330.506V405.38Z" fill="#64FFDA"/>
<path d="M330.218 445.755H319.747V456.221H330.218V445.755Z" fill="#64FFDA"/>
<path d="M328.777 499.764H318.306V510.23H328.777V499.764Z" fill="#64FFDA"/>
<path d="M329.306 486.226H318.835V496.692H329.306V486.226Z" fill="#64FFDA"/>
<path d="M329.69 472.736H319.219V483.202H329.69V472.736Z" fill="#64FFDA"/>
<path d="M330.026 459.246H319.555V469.711H330.026V459.246Z" fill="#64FFDA"/>
<path d="M447.656 236.728H437.185V247.194H447.656V236.728Z" fill="#64FFDA"/>
<path d="M464.034 219.109H453.563V229.575H464.034V219.109Z" fill="#64FFDA"/>
<path d="M463.074 234.856H452.603V245.321H463.074V234.856Z" fill="#64FFDA"/>
<path d="M465.139 203.026H454.668V213.492H465.139V203.026Z" fill="#64FFDA"/>
<path d="M467.829 169.901H457.358V180.367H467.829V169.901Z" fill="#64FFDA"/>
<path d="M466.436 186.607H455.965V197.073H466.436V186.607Z" fill="#64FFDA"/>
<path d="M448.04 348.059H437.569V358.525H448.04V348.059Z" fill="#64FFDA"/>
<path d="M462.353 250.17H451.882V260.636H462.353V250.17Z" fill="#64FFDA"/>
<path d="M461.489 293.618H451.018V304.083H461.489V293.618Z" fill="#64FFDA"/>
<path d="M461.537 279.551H451.066V290.017H461.537V279.551Z" fill="#64FFDA"/>
<path d="M469.318 153.05H458.847V163.516H469.318V153.05Z" fill="#64FFDA"/>
<path d="M467.253 333.128V339.849L471.239 333.128H467.253Z" fill="#64FFDA"/>
<path d="M476.619 278.255H466.148V288.721H476.619V278.255Z" fill="#64FFDA"/>
<path d="M476.955 263.564H466.484V274.03H476.955V263.564Z" fill="#64FFDA"/>
<path d="M476.571 292.465H466.1V302.931H476.571V292.465Z" fill="#64FFDA"/>
<path d="M477.579 248.394H467.109V258.86H477.579V248.394Z" fill="#64FFDA"/>
<path d="M472.248 119.3H461.777V129.766H472.248V119.3Z" fill="#64FFDA"/>
<path d="M461.681 307.396H451.21V317.862H461.681V307.396Z" fill="#64FFDA"/>
<path d="M476.859 306.292H466.388V316.757H476.859V306.292Z" fill="#64FFDA"/>
<path d="M470.807 136.151H460.336V146.617H470.807V136.151Z" fill="#64FFDA"/>
<path d="M466.868 330.2H472.632L477.387 322.182V319.686H466.868V330.2Z" fill="#64FFDA"/>
<path d="M461.825 265.053H451.354V275.518H461.825V265.053Z" fill="#64FFDA"/>
<path d="M446.743 266.349H436.272V276.815H446.743V266.349Z" fill="#64FFDA"/>
<path d="M447.127 251.706H436.656V262.172H447.127V251.706Z" fill="#64FFDA"/>
<path d="M446.551 280.655H436.08V291.121H446.551V280.655Z" fill="#64FFDA"/>
<path d="M478.54 232.695H468.069V243.161H478.54V232.695Z" fill="#64FFDA"/>
<path d="M446.983 321.798H436.512V332.264H446.983V321.798Z" fill="#64FFDA"/>
<path d="M447.464 335.001H436.993V345.466H447.464V335.001Z" fill="#64FFDA"/>
<path d="M446.503 294.626H436.032V305.091H446.503V294.626Z" fill="#64FFDA"/>
<path d="M448.376 221.413H437.905V231.879H448.376V221.413Z" fill="#64FFDA"/>
<path d="M446.695 308.356H436.224V318.822H446.695V308.356Z" fill="#64FFDA"/>
<path d="M462.113 320.838H451.642V331.304H462.113V320.838Z" fill="#64FFDA"/>
<path d="M453.9 125.397H443.429V135.863H453.9V125.397Z" fill="#64FFDA"/>
<path d="M449.145 205.811H438.674V216.276H449.145V205.811Z" fill="#64FFDA"/>
<path d="M453.275 360.205V364.045L455.581 360.205H453.275Z" fill="#64FFDA"/>
<path d="M462.69 333.992H452.219V344.458H462.69V333.992Z" fill="#64FFDA"/>
<path d="M463.266 346.907H452.987V357.372H457.07L463.266 346.907Z" fill="#64FFDA"/>
<path d="M452.987 141.48H442.516V151.946H452.987V141.48Z" fill="#64FFDA"/>
<path d="M451.018 173.837H440.547V184.303H451.018V173.837Z" fill="#64FFDA"/>
<path d="M450.057 189.92H439.586V200.386H450.057V189.92Z" fill="#64FFDA"/>
<path d="M451.978 157.707H441.508V168.172H451.978V157.707Z" fill="#64FFDA"/>
<path d="M362.399 315.893V321.078H372.918V310.564H365.57L362.399 315.893Z" fill="#64FFDA"/>
<path d="M541.462 624.105H530.991V634.571H541.462V624.105Z" fill="#64FFDA"/>
<path d="M544.103 608.118H533.632V618.584H544.103V608.118Z" fill="#64FFDA"/>
<path d="M538.051 550.797H527.58V556.894H538.051V550.797Z" fill="#64FFDA"/>
<path d="M547.033 591.892H536.562V602.358H547.033V591.892Z" fill="#64FFDA"/>
<path d="M539.156 639.756H528.685V650.222H539.156V639.756Z" fill="#64FFDA"/>
<path d="M553.662 558.622H543.191V569.088H553.662V558.622Z" fill="#64FFDA"/>
<path d="M550.251 575.377H539.781V585.843H550.251V575.377Z" fill="#64FFDA"/>
<path d="M557.408 622.473H546.937V632.939H557.408V622.473Z" fill="#64FFDA"/>
<path d="M556.64 546.764H546.169V552.861H556.64V546.764Z" fill="#64FFDA"/>
<path d="M535.65 562.175H525.179V572.641H535.65V562.175Z" fill="#64FFDA"/>
<path d="M635.268 9.16956H624.797V19.5393H635.268V9.16956Z" fill="#64FFDA"/>
<path d="M519.895 554.494H509.424V560.591H519.895V554.494Z" fill="#64FFDA"/>
<path d="M517.974 565.391H507.503V575.857H517.974V565.391Z" fill="#64FFDA"/>
<path d="M515.669 581.042H505.198V591.508H515.669V581.042Z" fill="#64FFDA"/>
<path d="M513.507 596.597H503.036V607.062H513.507V596.597Z" fill="#64FFDA"/>
<path d="M530.174 594.292H519.703V604.758H530.174V594.292Z" fill="#64FFDA"/>
<path d="M532.864 578.306H522.393V588.771H532.864V578.306Z" fill="#64FFDA"/>
<path d="M418.212 605.574H407.741V616.04H418.212V605.574Z" fill="#64FFDA"/>
<path d="M527.725 610.087H517.254V620.553H527.725V610.087Z" fill="#64FFDA"/>
<path d="M525.515 625.69H515.044V636.155H525.515V625.69Z" fill="#64FFDA"/>
<path d="M573.307 620.985H562.836V631.45H573.307V620.985Z" fill="#64FFDA"/>
<path d="M589.013 619.593H578.542V630.058H589.013V619.593Z" fill="#64FFDA"/>
<path d="M590.07 551.229H579.599V561.695H590.07V551.229Z" fill="#64FFDA"/>
<path d="M597.371 584.739H586.9V595.204H597.371V584.739Z" fill="#64FFDA"/>
<path d="M585.699 636.203H575.228V646.669H585.699V636.203Z" fill="#64FFDA"/>
<path d="M594.441 538.027H583.97V544.124H594.441V538.027Z" fill="#64FFDA"/>
<path d="M592.904 602.406H582.433V612.871H592.904V602.406Z" fill="#64FFDA"/>
<path d="M613.221 533.754H602.75V539.851H613.221V533.754Z" fill="#64FFDA"/>
<path d="M615.767 51.2726H625.373L626.238 49.7844V40.7589H615.767V51.2726Z" fill="#64FFDA"/>
<path d="M602.462 566.496H591.991V576.961H602.462V566.496Z" fill="#64FFDA"/>
<path d="M608.081 547.676H597.611V558.142H608.081V547.676Z" fill="#64FFDA"/>
<path d="M511.49 611.959H501.019V622.425H511.49V611.959Z" fill="#64FFDA"/>
<path d="M567.735 572.305H557.264V582.77H567.735V572.305Z" fill="#64FFDA"/>
<path d="M571.866 554.926H561.395V565.391H571.866V554.926Z" fill="#64FFDA"/>
<path d="M563.893 589.395H553.422V599.861H563.893V589.395Z" fill="#64FFDA"/>
<path d="M575.468 542.443H564.997V548.541H575.468V542.443Z" fill="#64FFDA"/>
<path d="M576.765 604.182H566.294V614.648H576.765V604.182Z" fill="#64FFDA"/>
<path d="M570.281 637.259H559.81V647.725H570.281V637.259Z" fill="#64FFDA"/>
<path d="M585.17 569.328H574.699V579.794H585.17V569.328Z" fill="#64FFDA"/>
<path d="M580.752 586.995H570.281V597.461H580.752V586.995Z" fill="#64FFDA"/>
<path d="M560.434 606.15H549.963V616.616H560.434V606.15Z" fill="#64FFDA"/>
<path d="M554.766 638.46H544.295V648.925H554.766V638.46Z" fill="#64FFDA"/>
<path d="M509.616 627.178H499.146V637.644H509.616V627.178Z" fill="#64FFDA"/>
<path d="M449.961 589.203H439.49V599.669H449.961V589.203Z" fill="#64FFDA"/>
<path d="M448.28 617.768H437.809V628.234H448.28V617.768Z" fill="#64FFDA"/>
<path d="M447.56 631.931H437.089V642.396H447.56V631.931Z" fill="#64FFDA"/>
<path d="M435.408 566.832H424.937V572.929H435.408V566.832Z" fill="#64FFDA"/>
<path d="M446.887 646.045H436.416V656.511H446.887V646.045Z" fill="#64FFDA"/>
<path d="M462.834 630.97H452.363V641.436H462.834V630.97Z" fill="#64FFDA"/>
<path d="M450.778 574.945H440.307V585.411H450.778V574.945Z" fill="#64FFDA"/>
<path d="M461.969 645.277H451.498V655.743H461.969V645.277Z" fill="#64FFDA"/>
<path d="M451.498 565.151H441.027V571.248H451.498V565.151Z" fill="#64FFDA"/>
<path d="M419.653 568.224H409.182V574.321H419.653V568.224Z" fill="#64FFDA"/>
<path d="M463.794 616.616H453.323V627.082H463.794V616.616Z" fill="#64FFDA"/>
<path d="M419.221 577.681H408.75V588.147H419.221V577.681Z" fill="#64FFDA"/>
<path d="M431.901 646.669H421.43V657.135H431.901V646.669Z" fill="#64FFDA"/>
<path d="M418.692 591.652H408.222V602.118H418.692V591.652Z" fill="#64FFDA"/>
<path d="M433.582 604.662H423.111V615.128H433.582V604.662Z" fill="#64FFDA"/>
<path d="M434.207 590.548H423.736V601.013H434.207V590.548Z" fill="#64FFDA"/>
<path d="M434.879 576.433H424.408V586.899H434.879V576.433Z" fill="#64FFDA"/>
<path d="M432.958 618.728H422.487V629.194H432.958V618.728Z" fill="#64FFDA"/>
<path d="M432.382 632.747H421.911V643.212H432.382V632.747Z" fill="#64FFDA"/>
<path d="M449.097 603.51H438.626V613.976H449.097V603.51Z" fill="#64FFDA"/>
<path d="M493.862 628.618H483.391V639.084H493.862V628.618Z" fill="#64FFDA"/>
<path d="M495.447 613.688H484.928V624.153H495.447V613.688Z" fill="#64FFDA"/>
<path d="M484.832 560.639H474.361V566.736H484.832V560.639Z" fill="#64FFDA"/>
<path d="M497.032 598.661H486.561V609.127H497.032V598.661Z" fill="#64FFDA"/>
<path d="M492.565 643.357H482.046V653.822H492.565V643.357Z" fill="#64FFDA"/>
<path d="M502.172 557.806H491.653V563.903H502.172V557.806Z" fill="#64FFDA"/>
<path d="M507.984 642.204H497.513V652.67H507.984V642.204Z" fill="#64FFDA"/>
<path d="M498.809 583.538H488.291V594.004H498.809V583.538Z" fill="#64FFDA"/>
<path d="M500.587 568.32H490.116V578.786H500.587V568.32Z" fill="#64FFDA"/>
<path d="M480.797 600.533H470.327V610.999H480.797V600.533Z" fill="#64FFDA"/>
<path d="M477.195 644.365H466.724V654.831H477.195V644.365Z" fill="#64FFDA"/>
<path d="M483.631 570.864H473.161V581.33H483.631V570.864Z" fill="#64FFDA"/>
<path d="M467.012 573.073H456.542V583.538H467.012V573.073Z" fill="#64FFDA"/>
<path d="M465.908 587.619H455.437V598.085H465.908V587.619Z" fill="#64FFDA"/>
<path d="M467.973 563.087H457.502V569.184H467.973V563.087Z" fill="#64FFDA"/>
<path d="M464.803 602.118H454.332V612.583H464.803V602.118Z" fill="#64FFDA"/>
<path d="M478.3 629.866H467.829V640.332H478.3V629.866Z" fill="#64FFDA"/>
<path d="M482.19 585.699H471.719V596.165H482.19V585.699Z" fill="#64FFDA"/>
<path d="M479.501 615.224H469.03V625.69H479.501V615.224Z" fill="#64FFDA"/>
<path d="M523.546 641.004H513.075V651.47H523.546V641.004Z" fill="#64FFDA"/>
<path d="M76.8027 655.503H66.3318V665.968H76.8027V655.503Z" fill="#64FFDA"/>
<path d="M322.821 662.368H312.35V672.833H322.821V662.368Z" fill="#64FFDA"/>
<path d="M267.008 663.184H256.489V673.65H267.008V663.184Z" fill="#64FFDA"/>
<path d="M339.584 662.176H329.113V672.642H339.584V662.176Z" fill="#64FFDA"/>
<path d="M286.653 662.848H276.182V673.314H286.653V662.848Z" fill="#64FFDA"/>
<path d="M305.242 662.56H294.771V673.026H305.242V662.56Z" fill="#64FFDA"/>
<path d="M355.723 661.984H345.252V672.45H355.723V661.984Z" fill="#64FFDA"/>
<path d="M386.655 661.6H376.184V672.065H386.655V661.6Z" fill="#64FFDA"/>
<path d="M401.689 661.36H391.218V671.825H401.689V661.36Z" fill="#64FFDA"/>
<path d="M371.381 661.792H360.91V672.257H371.381V661.792Z" fill="#64FFDA"/>
<path d="M172.386 665.632H161.915V676.098H172.386V665.632Z" fill="#64FFDA"/>
<path d="M42.8923 670.433H32.4214V680.899H42.8923V670.433Z" fill="#64FFDA"/>
<path d="M44.1411 653.534V644.365L38.7136 653.534H44.1411Z" fill="#64FFDA"/>
<path d="M28.915 662.512V667.457H39.386V656.991H32.1812L28.915 662.512Z" fill="#64FFDA"/>
<path d="M79.1562 668.945H68.6853V679.411H79.1562V668.945Z" fill="#64FFDA"/>
<path d="M112.73 667.649H102.26V678.114H112.73V667.649Z" fill="#64FFDA"/>
<path d="M416.627 660.976H406.156V671.441H416.627V660.976Z" fill="#64FFDA"/>
<path d="M198.755 664.816H188.284V675.282H198.755V664.816Z" fill="#64FFDA"/>
<path d="M143.759 666.544H133.288V677.01H143.759V666.544Z" fill="#64FFDA"/>
<path d="M223.203 664.192H212.733V674.658H223.203V664.192Z" fill="#64FFDA"/>
<path d="M245.826 663.616H235.355V674.082H245.826V663.616Z" fill="#64FFDA"/>
<path d="M596.458 618.68H593.72V629.146H596.458V618.68Z" fill="#64FFDA"/>
<path d="M592.952 635.531H590.214V645.997H592.952V635.531Z" fill="#64FFDA"/>
<path d="M589.974 651.806H587.236V662.272H589.974V651.806Z" fill="#64FFDA"/>
<path d="M431.469 660.591H420.998V671.057H431.469V660.591Z" fill="#64FFDA"/>
<path d="M600.637 601.302H597.899V611.767H600.637V601.302Z" fill="#64FFDA"/>
<path d="M617.064 545.324H614.326V555.79H617.064V545.324Z" fill="#64FFDA"/>
<path d="M605.392 583.298H602.654V593.764H605.392V583.298Z" fill="#64FFDA"/>
<path d="M635.364 30.0051V32.5975L636.901 30.0051H635.364Z" fill="#64FFDA"/>
<path d="M610.915 564.671H608.178V575.137H610.915V564.671Z" fill="#64FFDA"/>
<path d="M582.913 652.334H572.442V662.8H582.913V652.334Z" fill="#64FFDA"/>
<path d="M476.283 658.767H465.812V669.233H476.283V658.767Z" fill="#64FFDA"/>
<path d="M461.249 659.487H450.778V669.953H461.249V659.487Z" fill="#64FFDA"/>
<path d="M567.735 653.15H557.264V663.616H567.735V653.15Z" fill="#64FFDA"/>
<path d="M614.902 21.4116H604.431V31.7814H614.902V21.4116Z" fill="#64FFDA"/>
<path d="M491.364 657.951H480.894V668.417H491.364V657.951Z" fill="#64FFDA"/>
<path d="M552.461 654.11H541.99V664.576H552.461V654.11Z" fill="#64FFDA"/>
<path d="M506.591 657.039H496.12V667.504H506.591V657.039Z" fill="#64FFDA"/>
<path d="M537.187 655.071H526.716V665.536H537.187V655.071Z" fill="#64FFDA"/>
<path d="M521.865 656.079H511.394V666.544H521.865V656.079Z" fill="#64FFDA"/>
<path d="M446.311 660.063H435.84V670.529H446.311V660.063Z" fill="#64FFDA"/>
<path d="M335.117 119.588H324.646V129.958H335.117V119.588Z" fill="#64FFDA"/>
<path d="M356.924 121.845H346.453V132.214H356.924V121.845Z" fill="#64FFDA"/>
<path d="M416.963 118.964H406.492V129.334H416.963V118.964Z" fill="#64FFDA"/>
<path d="M397.607 121.46H387.136V131.83H397.607V121.46Z" fill="#64FFDA"/>
<path d="M166.766 73.4044H156.295V83.7742H166.766V73.4044Z" fill="#64FFDA"/>
<path d="M377.674 122.421H367.203V132.79H377.674V122.421Z" fill="#64FFDA"/>
<path d="M231.609 94.672H221.138V105.042H231.609V94.672Z" fill="#64FFDA"/>
<path d="M287.182 110.275H276.711V120.644H287.182V110.275Z" fill="#64FFDA"/>
<path d="M200.436 84.7823H189.917V95.1521H200.436V84.7823Z" fill="#64FFDA"/>
<path d="M260.476 103.217H250.005V113.587H260.476V103.217Z" fill="#64FFDA"/>
<path d="M311.966 115.747H301.495V126.117H311.966V115.747Z" fill="#64FFDA"/>
<path d="M552.125 61.9304H541.654V72.3002H552.125V61.9304Z" fill="#64FFDA"/>
<path d="M572.922 48.7762H562.452V59.146H572.922V48.7762Z" fill="#64FFDA"/>
<path d="M531.807 74.0765H521.336V84.4463H531.807V74.0765Z" fill="#64FFDA"/>
<path d="M593.96 35.0458H583.49V45.4156H593.96V35.0458Z" fill="#64FFDA"/>
<path d="M492.613 94.624H482.142V104.994H492.613V94.624Z" fill="#64FFDA"/>
<path d="M511.97 85.0223H501.499V95.3921H511.97V85.0223Z" fill="#64FFDA"/>
<path d="M473.545 102.785H463.074V113.155H473.545V102.785Z" fill="#64FFDA"/>
<path d="M454.716 109.602H444.245V119.972H454.716V109.602Z" fill="#64FFDA"/>
<path d="M435.936 115.027H425.465V125.397H435.936V115.027Z" fill="#64FFDA"/>
<path d="M70.5586 636.443V638.508H81.0295V628.042H75.5059L70.5586 636.443Z" fill="#64FFDA"/>
<path d="M111.818 640.572H101.347V651.038H111.818V640.572Z" fill="#64FFDA"/>
<path d="M154.134 598.277H143.663V608.743H154.134V598.277Z" fill="#64FFDA"/>
<path d="M116.045 609.559H126.035V599.093H122.241L116.045 609.559Z" fill="#64FFDA"/>
<path d="M111.193 654.206H100.723V664.672H111.193V654.206Z" fill="#64FFDA"/>
<path d="M135.161 595.493V592.084L133.144 595.493H135.161Z" fill="#64FFDA"/>
<path d="M114.652 626.842H104.181V637.308H114.652V626.842Z" fill="#64FFDA"/>
<path d="M77.4272 641.868H66.9562V652.334H77.4272V641.868Z" fill="#64FFDA"/>
<path d="M90.6839 624.393V618.104L86.9374 624.393H90.6839Z" fill="#64FFDA"/>
<path d="M119.455 613.015H108.984V623.481H119.455V613.015Z" fill="#64FFDA"/>
<path d="M143.279 639.516H132.808V649.982H143.279V639.516Z" fill="#64FFDA"/>
<path d="M53.7475 32.2615H43.2766V42.6312H53.7475V32.2615Z" fill="#64FFDA"/>
<path d="M14.3134 17.5229H3.84253V27.8927H14.3134V17.5229Z" fill="#64FFDA"/>
<path d="M92.9894 46.856H82.5185V57.2257H92.9894V46.856Z" fill="#64FFDA"/>
<path d="M157.4 195.681H146.929V197.985H157.4V195.681Z" fill="#64FFDA"/>
<path d="M149.235 612.055H138.764V622.521H149.235V612.055Z" fill="#64FFDA"/>
<path d="M142.702 653.054H132.231V663.52H142.702V653.054Z" fill="#64FFDA"/>
<path d="M145.536 625.834H135.065V636.299H145.536V625.834Z" fill="#64FFDA"/>
<path d="M149.427 585.075V594.868H159.946V584.403H149.859L149.427 585.075Z" fill="#64FFDA"/>
<path d="M130.886 60.7302H120.416V71.1H130.886V60.7302Z" fill="#64FFDA"/>
<path d="M372.054 607.398H361.583V617.864H372.054V607.398Z" fill="#64FFDA"/>
<path d="M247.988 609.463H237.517V619.929H247.988V609.463Z" fill="#64FFDA"/>
<path d="M249.717 595.876H239.246V606.342H249.717V595.876Z" fill="#64FFDA"/>
<path d="M246.691 623.049H236.22V633.515H246.691V623.049Z" fill="#64FFDA"/>
<path d="M251.782 582.242H241.311V592.708H251.782V582.242Z" fill="#64FFDA"/>
<path d="M245.586 650.126H235.115V660.591H245.586V650.126Z" fill="#64FFDA"/>
<path d="M245.874 636.635H235.404V647.101H245.874V636.635Z" fill="#64FFDA"/>
<path d="M253.992 568.608H243.521V579.074H253.992V568.608Z" fill="#64FFDA"/>
<path d="M258.747 541.339H248.276V551.805H258.747V541.339Z" fill="#64FFDA"/>
<path d="M261.052 527.705H250.581V538.171H261.052V527.705Z" fill="#64FFDA"/>
<path d="M256.393 554.974H245.922V565.439H256.393V554.974Z" fill="#64FFDA"/>
<path d="M245.826 514.263H235.355V524.729H245.826V514.263Z" fill="#64FFDA"/>
<path d="M230.936 582.674H220.466V593.14H230.936V582.674Z" fill="#64FFDA"/>
<path d="M233.866 568.992H223.396V579.458H233.866V568.992Z" fill="#64FFDA"/>
<path d="M228.247 596.357H217.776V606.822H228.247V596.357Z" fill="#64FFDA"/>
<path d="M250.87 497.46V492.035L247.652 497.46H250.87Z" fill="#64FFDA"/>
<path d="M236.94 555.31H226.47V565.775H236.94V555.31Z" fill="#64FFDA"/>
<path d="M263.214 514.071H252.743V524.537H263.214V514.071Z" fill="#64FFDA"/>
<path d="M237.901 509.942V511.094H248.42V500.628H243.425L237.901 509.942Z" fill="#64FFDA"/>
<path d="M243.04 527.945H232.57V538.411H243.04V527.945Z" fill="#64FFDA"/>
<path d="M240.015 541.627H229.544V552.093H240.015V541.627Z" fill="#64FFDA"/>
<path d="M274.549 461.214V470.143H285.068V459.678H275.51L274.549 461.214Z" fill="#64FFDA"/>
<path d="M280.121 513.927H269.65V524.392H280.121V513.927Z" fill="#64FFDA"/>
<path d="M278.488 527.513H268.017V537.979H278.488V527.513Z" fill="#64FFDA"/>
<path d="M276.711 541.099H266.24V551.565H276.711V541.099Z" fill="#64FFDA"/>
<path d="M281.61 500.34H271.139V510.806H281.61V500.34Z" fill="#64FFDA"/>
<path d="M274.934 554.734H264.463V565.199H274.934V554.734Z" fill="#64FFDA"/>
<path d="M284.156 473.216H273.637V483.682H284.156V473.216Z" fill="#64FFDA"/>
<path d="M265.231 500.484H254.76V510.95H265.231V500.484Z" fill="#64FFDA"/>
<path d="M286.557 649.358H276.086V659.823H286.557V649.358Z" fill="#64FFDA"/>
<path d="M225.989 609.991H215.518V620.457H225.989V609.991Z" fill="#64FFDA"/>
<path d="M273.108 568.32H262.637V578.786H273.108V568.32Z" fill="#64FFDA"/>
<path d="M282.955 486.754H272.484V497.22H282.955V486.754Z" fill="#64FFDA"/>
<path d="M269.794 470.191V467.647L268.305 470.191H269.794Z" fill="#64FFDA"/>
<path d="M259.083 483.778H268.545V473.312H265.231L259.083 483.778Z" fill="#64FFDA"/>
<path d="M266.768 649.694H256.297V660.159H266.768V649.694Z" fill="#64FFDA"/>
<path d="M266.96 486.898H256.489V497.364H266.96V486.898Z" fill="#64FFDA"/>
<path d="M268.593 609.079H258.122V619.545H268.593V609.079Z" fill="#64FFDA"/>
<path d="M269.89 595.54H259.419V606.006H269.89V595.54Z" fill="#64FFDA"/>
<path d="M267.008 636.203H256.537V646.669H267.008V636.203Z" fill="#64FFDA"/>
<path d="M271.427 581.906H260.956V592.372H271.427V581.906Z" fill="#64FFDA"/>
<path d="M267.681 622.665H257.162V633.131H267.681V622.665Z" fill="#64FFDA"/>
<path d="M176.565 163.228H166.094V173.693H176.565V163.228Z" fill="#64FFDA"/>
<path d="M111.049 70.86H100.578V81.3258H111.049V70.86Z" fill="#64FFDA"/>
<path d="M129.061 94.9119H118.59V105.378H129.061V94.9119Z" fill="#64FFDA"/>
<path d="M199.908 168.556H189.437V179.022H199.908V168.556Z" fill="#64FFDA"/>
<path d="M210.859 188.432H200.388V198.898H210.859V188.432Z" fill="#64FFDA"/>
<path d="M146.209 118.484H135.738V128.95H146.209V118.484Z" fill="#64FFDA"/>
<path d="M217.728 205.955H207.257V208.259H217.728V205.955Z" fill="#64FFDA"/>
<path d="M189.341 184.207H178.87V194.673H189.341V184.207Z" fill="#64FFDA"/>
<path d="M162.155 141.288H151.684V151.754H162.155V141.288Z" fill="#64FFDA"/>
<path d="M197.266 202.306H186.795V204.611H197.266V202.306Z" fill="#64FFDA"/>
<path d="M286.701 635.867H276.23V646.333H286.701V635.867Z" fill="#64FFDA"/>
<path d="M232.281 192.657H221.81V203.122H232.281V192.657Z" fill="#64FFDA"/>
<path d="M187.66 147.865H177.189V158.331H187.66V147.865Z" fill="#64FFDA"/>
<path d="M212.829 154.25H202.358V164.716H212.829V154.25Z" fill="#64FFDA"/>
<path d="M223.059 173.741H212.588V184.207H223.059V173.741Z" fill="#64FFDA"/>
<path d="M201.781 134.279H191.31V144.744H201.781V134.279Z" fill="#64FFDA"/>
<path d="M76.1303 58.7619H65.6594V69.2277H76.1303V58.7619Z" fill="#64FFDA"/>
<path d="M174.307 126.549H163.836V137.015H174.307V126.549Z" fill="#64FFDA"/>
<path d="M160.042 104.706H149.571V115.171H160.042V104.706Z" fill="#64FFDA"/>
<path d="M238.093 209.555H227.622V211.86H238.093V209.555Z" fill="#64FFDA"/>
<path d="M145.392 82.6219H134.921V93.0877H145.392V82.6219Z" fill="#64FFDA"/>
<path d="M228.391 524.969V516.663L223.492 524.969H228.391Z" fill="#64FFDA"/>
<path d="M212.54 569.424H202.069V579.89H212.54V569.424Z" fill="#64FFDA"/>
<path d="M220.466 541.964H209.995V552.429H220.466V541.964Z" fill="#64FFDA"/>
<path d="M216.527 555.694H206.056V566.159H216.527V555.694Z" fill="#64FFDA"/>
<path d="M208.698 583.154H198.227V593.62H208.698V583.154Z" fill="#64FFDA"/>
<path d="M205.24 596.885H194.769V607.351H205.24V596.885Z" fill="#64FFDA"/>
<path d="M222.819 650.702H212.348V661.167H222.819V650.702Z" fill="#64FFDA"/>
<path d="M223.203 637.164H212.733V647.629H223.203V637.164Z" fill="#64FFDA"/>
<path d="M224.26 623.577H213.789V634.043H224.26V623.577Z" fill="#64FFDA"/>
<path d="M213.837 534.666V538.699H224.308V528.233H217.632L213.837 534.666Z" fill="#64FFDA"/>
<path d="M198.707 637.788H188.236V648.253H198.707V637.788Z" fill="#64FFDA"/>
<path d="M202.31 610.567H191.839V621.033H202.31V610.567Z" fill="#64FFDA"/>
<path d="M153.461 158.043H142.99V168.508H153.461V158.043Z" fill="#64FFDA"/>
<path d="M118.206 110.419H107.735V120.884H118.206V110.419Z" fill="#64FFDA"/>
<path d="M168.063 180.078H157.592V190.544H168.063V180.078Z" fill="#64FFDA"/>
<path d="M136.842 134.807H126.371V145.272H136.842V134.807Z" fill="#64FFDA"/>
<path d="M200.052 624.201H189.581V634.667H200.052V624.201Z" fill="#64FFDA"/>
<path d="M97.8406 84.9744H87.3697V95.4401H97.8406V84.9744Z" fill="#64FFDA"/>
<path d="M177.045 198.85H166.574V201.154H177.045V198.85Z" fill="#64FFDA"/>
<path d="M198.275 651.326H187.804V661.792H198.275V651.326Z" fill="#64FFDA"/>
<path d="M297.653 500.196H287.182V510.662H297.653V500.196Z" fill="#64FFDA"/>
<path d="M357.068 580.514H346.597V590.98H357.068V580.514Z" fill="#64FFDA"/>
<path d="M356.684 594.148H346.213V604.614H356.684V594.148Z" fill="#64FFDA"/>
<path d="M190.11 113.971H179.639V124.437H190.11V113.971Z" fill="#64FFDA"/>
<path d="M356.059 621.321H345.588V631.787H356.059V621.321Z" fill="#64FFDA"/>
<path d="M355.867 634.907H345.396V645.373H355.867V634.907Z" fill="#64FFDA"/>
<path d="M356.347 607.735H345.876V618.2H356.347V607.735Z" fill="#64FFDA"/>
<path d="M371.621 634.619H361.151V645.085H371.621V634.619Z" fill="#64FFDA"/>
<path d="M357.404 571.296H346.933V577.393H357.404V571.296Z" fill="#64FFDA"/>
<path d="M371.814 621.033H361.343V631.498H371.814V621.033Z" fill="#64FFDA"/>
<path d="M371.429 648.253H360.958V658.719H371.429V648.253Z" fill="#64FFDA"/>
<path d="M355.771 648.445H345.3V658.911H355.771V648.445Z" fill="#64FFDA"/>
<path d="M339.584 648.637H329.113V659.103H339.584V648.637Z" fill="#64FFDA"/>
<path d="M341.554 571.681H331.083V577.778H341.554V571.681Z" fill="#64FFDA"/>
<path d="M339.68 635.147H329.209V645.613H339.68V635.147Z" fill="#64FFDA"/>
<path d="M324.694 581.138H314.223V591.604H324.694V581.138Z" fill="#64FFDA"/>
<path d="M314.944 578.066H325.415V571.969H323.35L325.415 568.464V567.6H314.944V578.066Z" fill="#64FFDA"/>
<path d="M339.92 621.561H329.45V632.027H339.92V621.561Z" fill="#64FFDA"/>
<path d="M340.641 594.436H330.17V604.902H340.641V594.436Z" fill="#64FFDA"/>
<path d="M341.121 580.85H330.65V591.316H341.121V580.85Z" fill="#64FFDA"/>
<path d="M340.209 608.023H329.738V618.488H340.209V608.023Z" fill="#64FFDA"/>
<path d="M387.232 620.601H376.761V631.066H387.232V620.601Z" fill="#64FFDA"/>
<path d="M402.506 620.121H392.035V630.586H402.506V620.121Z" fill="#64FFDA"/>
<path d="M402.89 606.342H392.419V616.808H402.89V606.342Z" fill="#64FFDA"/>
<path d="M403.274 592.516H392.803V602.982H403.274V592.516Z" fill="#64FFDA"/>
<path d="M402.218 633.899H391.747V644.365H402.218V633.899Z" fill="#64FFDA"/>
<path d="M404.043 569.328H393.572V575.425H404.043V569.328Z" fill="#64FFDA"/>
<path d="M417.3 633.371H406.829V643.837H417.3V633.371Z" fill="#64FFDA"/>
<path d="M372.39 593.716H361.919V604.182H372.39V593.716Z" fill="#64FFDA"/>
<path d="M401.929 647.629H391.458V658.095H401.929V647.629Z" fill="#64FFDA"/>
<path d="M403.707 578.69H393.236V589.155H403.707V578.69Z" fill="#64FFDA"/>
<path d="M416.915 647.197H406.444V657.663H416.915V647.197Z" fill="#64FFDA"/>
<path d="M386.799 647.965H376.329V658.431H386.799V647.965Z" fill="#64FFDA"/>
<path d="M388.529 570.144H378.058V576.241H388.529V570.144Z" fill="#64FFDA"/>
<path d="M373.014 570.816H362.543V576.913H373.014V570.816Z" fill="#64FFDA"/>
<path d="M372.726 580.082H362.255V590.548H372.726V580.082Z" fill="#64FFDA"/>
<path d="M386.992 634.331H376.521V644.797H386.992V634.331Z" fill="#64FFDA"/>
<path d="M388.24 579.458H377.769V589.924H388.24V579.458Z" fill="#64FFDA"/>
<path d="M324.07 594.724H313.599V605.19H324.07V594.724Z" fill="#64FFDA"/>
<path d="M387.904 593.188H377.433V603.654H387.904V593.188Z" fill="#64FFDA"/>
<path d="M387.52 606.918H377.049V617.384H387.52V606.918Z" fill="#64FFDA"/>
<path d="M296.5 513.735H286.029V524.2H296.5V513.735Z" fill="#64FFDA"/>
<path d="M301.447 429.481V419.255L295.395 429.481H301.447Z" fill="#64FFDA"/>
<path d="M290.64 436.97V443.019H301.111V432.553H293.282L290.64 436.97Z" fill="#64FFDA"/>
<path d="M300.727 446.043H290.256V456.509H300.727V446.043Z" fill="#64FFDA"/>
<path d="M299.478 473.072H289.007V483.538H299.478V473.072Z" fill="#64FFDA"/>
<path d="M300.15 459.582H289.679V470.047H300.15V459.582Z" fill="#64FFDA"/>
<path d="M323.542 608.263H313.071V618.728H323.542V608.263Z" fill="#64FFDA"/>
<path d="M306.154 608.503H295.683V618.968H306.154V608.503Z" fill="#64FFDA"/>
<path d="M305.626 622.041H295.155V632.507H305.626V622.041Z" fill="#64FFDA"/>
<path d="M298.613 486.61H288.142V497.076H298.613V486.61Z" fill="#64FFDA"/>
<path d="M305.29 635.579H294.819V646.045H305.29V635.579Z" fill="#64FFDA"/>
<path d="M287.902 608.791H277.431V619.257H287.902V608.791Z" fill="#64FFDA"/>
<path d="M291.312 568.08H280.841V578.546H291.312V568.08Z" fill="#64FFDA"/>
<path d="M288.863 595.204H278.392V605.67H288.863V595.204Z" fill="#64FFDA"/>
<path d="M290.016 581.666H279.545V592.132H290.016V581.666Z" fill="#64FFDA"/>
<path d="M306.875 594.964H296.404V605.43H306.875V594.964Z" fill="#64FFDA"/>
<path d="M294.002 540.907H283.531V551.373H294.002V540.907Z" fill="#64FFDA"/>
<path d="M287.182 622.329H276.711V632.795H287.182V622.329Z" fill="#64FFDA"/>
<path d="M292.657 554.494H282.186V564.959H292.657V554.494Z" fill="#64FFDA"/>
<path d="M295.299 527.321H284.828V537.787H295.299V527.321Z" fill="#64FFDA"/>
<path d="M417.732 619.496H407.261V629.962H417.732V619.496Z" fill="#64FFDA"/>
<path d="M305.146 649.07H294.675V659.535H305.146V649.07Z" fill="#64FFDA"/>
<path d="M305.578 412.774V415.942H316.049V405.476H309.901L305.578 412.774Z" fill="#64FFDA"/>
<path d="M315.472 445.947H305.001V456.413H315.472V445.947Z" fill="#64FFDA"/>
<path d="M316.145 402.452V395.059L311.774 402.452H316.145Z" fill="#64FFDA"/>
<path d="M315.761 432.457H305.29V442.923H315.761V432.457Z" fill="#64FFDA"/>
<path d="M315.953 418.967H305.482V429.432H315.953V418.967Z" fill="#64FFDA"/>
<path d="M322.869 635.339H312.398V645.805H322.869V635.339Z" fill="#64FFDA"/>
<path d="M319.939 388.626V388.914H330.458V378.448H325.991L319.939 388.626Z" fill="#64FFDA"/>
<path d="M323.157 621.801H312.687V632.267H323.157V621.801Z" fill="#64FFDA"/>
<path d="M322.773 648.829H312.302V659.295H322.773V648.829Z" fill="#64FFDA"/>
<path d="M314.656 472.976H304.185V483.442H314.656V472.976Z" fill="#64FFDA"/>
<path d="M309.661 554.254H299.19V564.719H309.661V554.254Z" fill="#64FFDA"/>
<path d="M311.63 527.129H301.159V537.595H311.63V527.129Z" fill="#64FFDA"/>
<path d="M315.136 459.438H304.665V469.903H315.136V459.438Z" fill="#64FFDA"/>
<path d="M308.7 567.84H298.229V578.306H308.7V567.84Z" fill="#64FFDA"/>
<path d="M310.669 540.715H300.198V551.181H310.669V540.715Z" fill="#64FFDA"/>
<path d="M307.739 581.378H297.268V591.844H307.739V581.378Z" fill="#64FFDA"/>
<path d="M312.543 513.591H302.072V524.056H312.543V513.591Z" fill="#64FFDA"/>
<path d="M314.031 486.466H303.561V496.932H314.031V486.466Z" fill="#64FFDA"/>
<path d="M313.359 500.004H302.888V510.47H313.359V500.004Z" fill="#64FFDA"/>
</svg>
